# xmcd CD database file
#
# Track frame offsets:
#	150
#	23118
#	42170
#	60025
#	79523
#	101568
#	118314
#	136310
#	159202
#	175775
#	198406
#	220778
#
# Disc length: 3230 seconds
#
# Revision: 0
# Processed by: cddbd v1.4PL0 Copyright (c) Steve Scherf et al.
# Submitted via: Feurio! 1.65 - http://www.feurio.com
#
DISCID=910c9c0c
DTITLE=Portishead - Dummy
DYEAR=1900
DGENRE=
TTITLE0=Mysterons
TTITLE1=Sour Times
TTITLE2=Strangers
TTITLE3=It could be sweet
TTITLE4=Wandering star
TTITLE5=It's a fire
TTITLE6=Numb
TTITLE7=Roads
TTITLE8=Pedestral
TTITLE9=Biscuit
TTITLE10=Glory Box
TTITLE11=The Fifth Element OST - The Diva
EXTD=
EXTT0=
EXTT1=
EXTT2=
EXTT3=
EXTT4=
EXTT5=
EXTT6=
EXTT7=
EXTT8=
EXTT9=
EXTT10=
EXTT11=
PLAYORDER=
